<?xml version="1.0" encoding="UTF-8"?>
<svg id="Layer_2" data-name="Layer 2" xmlns="http://www.w3.org/2000/svg" viewBox="0 0 234.97 234.97">
  <defs>
    <style>
      .cls-1 {
        fill: #000;
      }

      .cls-1, .cls-2 {
        stroke-width: 0px;
      }

      .cls-2 {
        fill: #fff;
      }
    </style>
  </defs>
  <g id="Layer_1-2" data-name="Layer 1">
    <g>
      <circle class="cls-2" cx="117.49" cy="117.49" r="117.49"/>
      <path class="cls-1" d="M116.31,16.69C60.73,16.69,15.51,61.91,15.51,117.49s45.22,100.8,100.8,100.8,100.8-45.22,100.8-100.8S171.89,16.69,116.31,16.69ZM116.31,209.28c-23.83,0-45.53-9.08-61.85-23.96,1.76-1.31,6.53-4.57,14.54-7.8,4.82-1.95,11.34-4.08,19.57-5.71-3.41,4.4-7.67,8.2-12.88,9.96,0,0,4.48,1.47,10.7,1.47s13.87-1.41,20.77-6.99c0,0,6.97,12.2,18.71,12.2.65,0,1.32-.04,2-.12l-2.88-10.78s9.89,5.67,21.21,5.67c3.03,0,6.17-.41,9.24-1.44-6.17-3.24-10.7-6.98-14.02-10.82,10.05,1.65,17.62,4.13,22.88,6.36,8.88,3.77,13.17,7.57,13.74,8.1-16.3,14.82-37.96,23.86-61.74,23.86ZM98.09,170.28l.04-.06c1.61-2.04,2.95-4.17,4.04-6.34l.06-.1s0,0-.01,0c4.44-8.9,4.92-18.48,4.2-24.91h0s-.39-6.8-.39-6.8c-.03-.53-.16-1.05-.39-1.53l-6.37-13.41c-.14-.29-.07-.64.17-.86.57-.53,1.78-1.48,3.6-2.05.16-.05.33.02.4.17.7,1.44,4.32,8.72,7.34,10.73.86.57,2.02.31,2.56-.57,1-1.63,2.61-5.7,4.17-15.83l5.61-4.01s-2.75,26.17.22,26.89c0,0,3.58,1.31,10.48-3.76,0,0,.38,3.62.91,5.1-3.88,1.66-7.23,6.11-7.9,9.92-.14.75-1.8,8.61.85,17.42.31,1.04.71,2.11,1.2,3.2,0,0,0,0,0,0l.02.03c.89,1.98,2.1,4.06,3.75,6.28l.02.03s0,0,0,0c1.71,2.3,3.88,4.75,6.64,7.39-23.43-3.89-18.65-26.84-18.67-35.22-3.83,20.71-2.38,36.46-2.38,36.46,0,0-9.35-2.23-6.14-27.88-1.92,17.34-5.96,23.23-23.79,28.3,4.04-2.48,7.24-5.41,9.77-8.59,0,0,0,0,.01,0ZM67.77,118.16c-4.13-.46-18.95-3.24-13.68-19.52,1.15-3.45,3.63-6.37,6.43-8.33,2.73-1.92,6.09-2.73,9.42-2.49l5.91.75c.58.07.97-.57.65-1.05l-1.13-1.7c-1.95-2.93-2.84-6.45-2.5-9.96l.02-.26c.31-3.17,1.31-5.79,2.94-7.61,1.91-2.14,4.71-3.22,8.33-3.22,1.02,0,2.09.09,3.21.26,1,.16,1.98.47,2.9.9l5.19,2.42c.38.18.81-.11.79-.53l-.19-3.74c-.09-1.69.2-3.39.89-4.94,4.47-10.09,11.16-15.4,19.45-15.4,2.78,0,5.58.62,8.18,1.72,7.56,3.18,12.37,10.73,12.52,18.93l.07,3.58c0,.43.5.68.85.42l3.64-2.62c1.98-1.43,4.36-2.2,6.81-2.2h.2c3.68,0,6.45,1.02,8.49,3.12,1,1.03,1.84,2.36,2.48,3.91,1.98,4.77.84,10.28-2.69,14.06l-1.99,2.13c-.29.31-.02.81.4.74l2-.34c6.34-1.06,12.93.4,17.99,4.36,4.06,3.18,6.34,6.82,6.59,10.69.25,3.88-1.69,7.48-5.08,10.58-2.84,2.59-6.39,4.26-10.15,5.03l-3.27.67,3.67,4.97c1.05,1.42,1.69,3.14,1.64,4.91-.05,1.7-.56,3.35-1.55,4.69-1.42,1.93-4.78,3.08-8.99,3.08-3.09,0-4.39-.99-5.19-1.57l-1.21-.91-2.81-2.22h0s-1.86,1.23-1.86,1.23c-.98.65-2.25.64-3.22-.02l-.43-.29c-.96-.65-1.72-1.57-2.1-2.66-2.47-7.11,1.05-10.48,1.05-10.48,12.95-2.69,9.08-12.19,7.73-11.27-1.35.92-7.15,6.64-14.8,2.94-7.95-3.84-4.54-9.38-3.37-10.93.14-.19.02-.46-.22-.5-3.72-.59-5.86-1.81-6.89-2.58-.49-.37-1.18-.29-1.61.14-8.29,8.11-14.35,5.73-16.62,4.28-.51-.32-1.19-.08-1.4.49-5.3,14.4-19.38,6.08-22.75,3.82-.41-.27-.97-.1-1.16.35-2.32,5.65,5.29,8.93,8.92,10.14,1.22.41,2.23,1.26,2.87,2.37l7.43,12.95-.14.28c-.96,1.89-2.89,3.1-5.01,3.11-2.89.01-6.34-1.07-8.86-5.28-.36,3.03-18.82,11.5-22.15.41-.73-2.43-.23-5.07,1.23-7.15l2.32-3.32c.54-.78.31-1.3-.15-1.35ZM130.54,121.47c-.56.37-1.31,0-1.34-.68,0,0-.7-9.63.23-7.14.93,2.49,4.4,3.83,7.13,3.83,2.73,0-6.02,3.98-6.02,3.98ZM110.52,114.19c-.03.3-.4.41-.6.19,0,0-2.97-2.55-3-3.41.73-2,2.22-5.39,4.7-2.53.41.25-.92,4.05-1.1,5.75ZM182.35,181.24c-.63-.63-13.64-13.18-45.6-17.02-5.76-10.66-4.03-20.3-4.03-20.3.47-2.69,3.63-5.66,5.05-5.66,1.06,0,3.6,2.3,6.61,2.3.86,0,1.76-.19,2.68-.67.33-.17.72-.09,1,.15,1.82,1.62,6.32,2.86,11.13,2.86,9.17,0,19.51-4.52,14.81-19.6,16.88-9.24,22.35-31.19-6.11-42.69-.44-.18-.73-.61-.72-1.08.08-11.54-5.29-21.95-18.51-21.95-1.54,0-3.19.14-4.94.44-.45.08-.87-.21-.97-.65-2.4-10.49-14.09-19.61-26.34-19.61-9.68,0-19.7,5.7-25.76,20.92-.19.47-.68.74-1.18.64-1.86-.36-3.63-.54-5.29-.54-11.92,0-18.56,8.97-17.19,22.43.02.22-.17.39-.38.35-14.68-2.69-36.08,27.2-8.71,40.65.37.18.52.62.36,1-3.28,7.74,3.42,19.86,15.2,19.86,3.4,0,7.22-1.01,11.36-3.43.18-.1.4-.08.56.05,2.54,2.13,5.35,2.72,7.69,2.72,2.59,0,4.61-.73,5.07-.91.06-.02.12,0,.15.06.32.64,2,4.19,1.25,7.54,0,0-2,7.74-6.44,15.8-27,4.16-40.58,14.27-42.95,16.19-15.86-16.5-25.61-38.91-25.61-63.6,0-50.7,41.1-91.8,91.8-91.8s91.8,41.1,91.8,91.8c0,24.77-9.81,47.24-25.76,63.75Z"/>
    </g>
  </g>
</svg>